<?xml version="1.0" standalone="no"?>
<!DOCTYPE svg PUBLIC "-//W3C//DTD SVG 20010904//EN"
 "http://www.w3.org/TR/2001/REC-SVG-20010904/DTD/svg10.dtd">
<svg version="1.0" xmlns="http://www.w3.org/2000/svg"
 width="600.000000pt" height="600.000000pt" viewBox="0 0 600.000000 600.000000"
 preserveAspectRatio="xMidYMid meet">

<g transform="translate(0.000000,600.000000) scale(0.100000,-0.100000)"
fill="#000000" stroke="none">
<path d="M2238 4848 l-318 -241 48 -87 c26 -48 54 -96 62 -108 15 -20 22 -16
345 188 181 115 331 213 333 218 2 8 -128 243 -147 264 -3 4 -149 -102 -323
-234z"/>
<path d="M3506 4938 c-36 -78 -63 -145 -59 -149 9 -9 689 -329 706 -332 10 -2
94 182 96 209 1 6 -142 96 -316 200 -175 103 -327 194 -339 201 -20 13 -24 7
-88 -129z"/>
<path d="M3575 4487 c-96 -32 -166 -88 -226 -181 -47 -72 -74 -140 -109 -281
l-27 -110 -109 0 -109 0 -8 70 c-44 401 -312 598 -616 453 -89 -43 -184 -140
-238 -243 -42 -82 -95 -236 -108 -312 -4 -24 -10 -45 -14 -48 -8 -4 -331 -55
-354 -55 -9 0 -12 40 -12 153 -1 170 -9 212 -58 283 -88 128 -282 186 -449
134 -208 -64 -422 -308 -458 -520 -14 -83 -1 -160 38 -233 34 -63 132 -154
215 -201 l66 -37 -45 -70 c-134 -206 -174 -394 -115 -532 59 -137 245 -252
653 -405 l152 -57 12 -48 c9 -37 9 -49 1 -52 -7 -3 -70 -16 -142 -31 -192 -38
-488 -115 -670 -174 -180 -58 -501 -182 -530 -205 -34 -25 0 -18 164 34 243
77 440 135 667 195 211 55 533 130 539 124 7 -7 55 -141 52 -144 -2 -2 -75
-33 -163 -68 -208 -84 -394 -169 -579 -265 -239 -125 -542 -310 -519 -318 6
-2 143 64 305 146 320 163 575 282 822 385 87 36 160 66 162 66 1 0 17 -22 34
-49 41 -63 128 -145 176 -165 57 -24 112 -20 184 14 35 17 68 27 72 23 4 -4
31 -66 59 -138 218 -542 397 -706 775 -709 141 -1 225 21 315 83 108 74 176
180 278 436 66 165 132 311 153 337 13 15 19 16 69 2 30 -7 68 -14 85 -14 47
0 122 43 200 114 l70 64 90 -33 c250 -91 620 -250 965 -415 326 -157 330 -138
7 44 -254 143 -595 297 -889 402 -73 26 -134 48 -136 49 -1 1 14 34 35 73 29
55 43 72 60 72 27 0 317 -59 518 -106 187 -44 322 -79 593 -156 188 -52 240
-62 220 -43 -3 3 -70 30 -149 60 -287 107 -607 196 -940 260 -101 20 -198 39
-214 43 l-31 7 14 61 13 61 97 42 c255 113 520 264 657 375 106 85 128 120
133 205 5 82 -17 143 -92 264 l-55 86 107 75 c249 173 380 324 400 463 12 79
-4 170 -43 249 -61 124 -175 211 -365 275 -78 27 -111 33 -185 33 -77 1 -98
-3 -145 -25 -74 -34 -120 -76 -154 -139 -41 -76 -56 -140 -63 -277 -6 -116 -7
-123 -27 -123 -44 -1 -452 52 -473 60 -15 6 -23 18 -23 34 0 50 -51 222 -91
305 -52 107 -144 203 -234 246 -71 34 -193 44 -260 22z m221 -160 c136 -69
246 -257 261 -445 l6 -73 -27 11 c-120 45 -370 88 -570 97 l-148 6 7 51 c9 71
41 163 77 219 40 62 118 132 171 151 62 23 159 15 223 -17z m-1138 1 c48 -15
124 -79 161 -137 37 -57 76 -163 85 -232 l7 -46 -137 -6 c-167 -8 -341 -42
-517 -101 l-129 -43 6 51 c22 169 87 319 180 411 109 109 218 142 344 103z
m2442 -122 c179 -38 350 -164 381 -281 38 -139 -115 -339 -413 -542 l-87 -60
25 -37 c14 -21 40 -68 57 -104 28 -59 32 -77 32 -152 0 -68 -5 -93 -22 -125
-71 -134 -209 -238 -544 -413 -86 -45 -158 -82 -162 -82 -3 0 -8 13 -12 30 -8
38 -69 131 -130 199 l-49 53 45 36 c24 20 69 61 99 91 l55 56 72 2 c134 3 253
51 341 140 41 41 52 57 43 66 -9 9 -18 7 -39 -6 -133 -85 -248 -121 -369 -115
-115 6 -206 52 -318 159 -80 77 -114 98 -101 62 33 -87 171 -239 240 -264 22
-8 36 -20 36 -30 0 -16 -72 -88 -130 -129 l-27 -19 -39 33 c-94 80 -239 164
-353 204 -37 14 -65 37 -138 117 -50 55 -181 189 -292 299 -145 142 -205 196
-214 189 -89 -69 -177 -133 -182 -133 -3 0 2 14 11 32 33 63 65 174 71 246 l6
73 120 -3 119 -3 23 -90 c30 -118 57 -188 101 -261 91 -153 233 -244 379 -244
205 0 352 154 408 428 9 41 17 76 19 78 2 2 53 -12 114 -31 121 -39 124 -39
124 -25 0 5 -37 29 -82 51 -46 23 -78 44 -72 46 7 2 110 -10 229 -27 297 -41
271 -45 285 43 21 135 71 322 98 372 45 82 105 100 242 71z m-3730 -16 c99
-51 160 -218 160 -441 l0 -88 28 4 c60 11 419 55 442 55 18 0 5 -11 -50 -41
-123 -66 -124 -81 -4 -44 43 14 82 25 86 25 3 0 15 -30 27 -67 54 -178 152
-317 259 -370 52 -25 67 -28 165 -28 59 0 107 -3 107 -6 0 -9 -131 -133 -208
-197 -77 -63 -178 -132 -290 -197 l-83 -48 -69 47 c-82 57 -156 121 -171 148
-9 17 -8 23 7 31 11 6 47 37 80 69 90 86 148 207 129 268 -6 19 -10 15 -30
-33 -80 -197 -263 -308 -485 -293 -47 3 -110 13 -140 21 -98 29 -98 29 -60 -5
19 -18 60 -44 90 -59 50 -24 66 -26 181 -26 l126 -1 129 -103 c71 -56 130
-106 131 -109 1 -4 -37 -36 -84 -72 -90 -67 -170 -162 -180 -212 -3 -16 -9
-31 -14 -34 -13 -7 -288 122 -404 191 -130 76 -225 169 -250 244 -41 124 -2
271 121 457 35 54 64 100 64 103 0 4 -39 26 -87 51 -103 53 -208 150 -244 225
-54 113 -17 253 102 380 138 147 310 211 419 155z m1537 -432 c-8 -107 -38
-192 -99 -283 -172 -259 -438 -279 -588 -45 -37 58 -77 168 -82 225 l-3 39 85
27 c111 36 120 36 120 1 0 -15 10 -48 23 -72 59 -118 197 -120 265 -5 20 34
22 50 19 112 l-4 72 41 4 c23 2 83 4 135 5 l94 2 -6 -82z m602 76 c29 -6 31
-10 31 -47 0 -120 127 -224 224 -183 52 22 78 69 73 134 -3 37 0 52 9 52 26 0
199 -43 211 -52 29 -23 -15 -226 -67 -306 -152 -236 -462 -184 -599 100 -39
82 -71 204 -71 273 l0 35 79 0 c43 0 93 -3 110 -6z m214 -21 c4 -2 7 -15 7
-29 0 -30 -41 -74 -70 -74 -34 0 -70 44 -70 85 l0 36 63 -7 c34 -4 65 -9 70
-11z m-1185 -54 c9 -104 -123 -125 -144 -22 -6 28 -3 32 27 41 95 30 113 27
117 -19z m792 -498 c91 -91 184 -189 207 -217 l42 -51 -552 -6 c-304 -3 -553
-4 -555 -3 -6 7 435 378 547 459 l63 47 42 -32 c22 -17 115 -106 206 -197z
m471 -393 c169 -102 362 -275 410 -369 11 -23 24 -68 26 -100 6 -59 -3 -156
-15 -175 -5 -8 -36 -8 -112 2 -108 14 -140 12 -140 -10 0 -19 43 -33 139 -45
46 -6 86 -13 88 -15 5 -5 -32 -87 -49 -108 -12 -16 -20 -15 -115 14 -77 24
-106 29 -114 21 -23 -23 1 -42 88 -69 48 -14 90 -28 92 -30 9 -8 -44 -55 -84
-74 -31 -15 -61 -20 -121 -20 -97 0 -180 19 -494 108 -135 39 -262 73 -283 77
l-37 7 0 62 c0 33 3 84 6 111 6 48 10 52 83 110 199 157 378 330 515 498 21
26 40 47 42 47 2 0 36 -19 75 -42z m-1261 -275 c148 -111 276 -193 387 -251
l73 -37 0 -110 0 -110 -448 -113 c-246 -62 -456 -112 -468 -112 -54 0 -202
107 -178 129 5 5 39 18 76 31 37 12 77 29 89 39 19 15 19 18 5 30 -13 11 -31
8 -108 -18 -51 -17 -98 -31 -104 -31 -6 0 -23 25 -39 56 -21 42 -25 58 -16 63
7 5 50 14 96 20 89 14 123 29 110 51 -8 13 -58 11 -192 -6 l-51 -7 -7 56 c-20
157 67 265 382 478 l116 78 71 -67 c39 -37 132 -113 206 -169z m640 -616 c80
-24 222 -63 315 -87 94 -24 173 -46 177 -49 4 -4 -17 -78 -46 -166 -116 -344
-213 -491 -375 -568 -52 -25 -80 -31 -157 -35 -270 -14 -461 112 -604 398 -36
71 -140 337 -140 357 0 7 19 17 43 23 158 41 454 123 517 143 41 14 86 25 100
26 14 1 91 -19 170 -42z"/>
<path d="M5040 3959 c-82 -47 -121 -143 -128 -311 -2 -65 -2 -118 2 -118 14 0
136 50 194 79 70 36 136 91 158 132 69 134 -97 293 -226 218z m135 -83 c35
-36 40 -67 17 -119 -13 -30 -37 -58 -69 -81 -50 -37 -162 -87 -176 -79 -9 5 0
74 20 138 41 135 144 205 208 141z"/>
<path d="M1114 3921 c-69 -42 -105 -122 -84 -186 26 -79 108 -143 263 -204
116 -46 111 -50 104 77 -3 59 -13 130 -21 158 -19 62 -63 129 -102 155 -39 25
-118 25 -160 0z m149 -91 c44 -38 85 -131 93 -209 8 -73 6 -74 -85 -31 -116
55 -171 116 -171 188 0 78 98 110 163 52z"/>
</g>
</svg>
